<mxfile host="app.diagrams.net" modified="2023-05-19T18:34:59.411Z" agent="Mozilla/5.0 (X11; Linux x86_64) AppleWebKit/537.36 (KHTML, like Gecko) Chrome/110.0.0.0 Safari/537.36" etag="r_6rb296rr7m51FbNJwT" version="21.3.2" type="device">
  <diagram name="Страница 1" id="VVy0ClTnzfW8CJz5d3PP">
    <mxGraphModel dx="978" dy="592" grid="1" gridSize="10" guides="1" tooltips="1" connect="1" arrows="1" fold="1" page="1" pageScale="1" pageWidth="600" pageHeight="300" math="0" shadow="0">
      <root>
        <mxCell id="0" />
        <mxCell id="1" parent="0" />
        <mxCell id="YooQEKje9dTU8nWdilUu-11" value="" style="endArrow=none;html=1;rounded=0;" parent="1" edge="1">
          <mxGeometry width="50" height="50" relative="1" as="geometry">
            <mxPoint x="20" y="10" as="sourcePoint" />
            <mxPoint x="580" y="10" as="targetPoint" />
          </mxGeometry>
        </mxCell>
        <mxCell id="YooQEKje9dTU8nWdilUu-12" value="Пространство ядра" style="text;html=1;strokeColor=none;fillColor=none;align=center;verticalAlign=middle;whiteSpace=wrap;rounded=0;fontFamily=Times New Roman;fontSize=16;" parent="1" vertex="1">
          <mxGeometry x="420" y="20" width="140" height="30" as="geometry" />
        </mxCell>
        <mxCell id="YooQEKje9dTU8nWdilUu-14" value="" style="endArrow=none;dashed=1;html=1;rounded=0;endSize=6;strokeWidth=1;dashPattern=12 12;" parent="1" edge="1">
          <mxGeometry width="50" height="50" relative="1" as="geometry">
            <mxPoint x="40" y="290" as="sourcePoint" />
            <mxPoint x="560" y="290" as="targetPoint" />
          </mxGeometry>
        </mxCell>
        <mxCell id="YooQEKje9dTU8nWdilUu-15" value="Модуль zram" style="text;html=1;strokeColor=none;fillColor=none;align=center;verticalAlign=middle;whiteSpace=wrap;rounded=0;fontFamily=Times New Roman;fontSize=16;" parent="1" vertex="1">
          <mxGeometry x="440" y="250" width="100" height="30" as="geometry" />
        </mxCell>
        <mxCell id="YooQEKje9dTU8nWdilUu-17" value="" style="endArrow=none;dashed=1;html=1;rounded=0;endSize=6;strokeWidth=1;dashPattern=12 12;" parent="1" edge="1">
          <mxGeometry width="50" height="50" relative="1" as="geometry">
            <mxPoint x="40" y="60" as="sourcePoint" />
            <mxPoint x="40" y="290" as="targetPoint" />
          </mxGeometry>
        </mxCell>
        <mxCell id="YooQEKje9dTU8nWdilUu-18" value="" style="endArrow=none;dashed=1;html=1;rounded=0;endSize=6;strokeWidth=1;dashPattern=12 12;" parent="1" edge="1">
          <mxGeometry width="50" height="50" relative="1" as="geometry">
            <mxPoint x="560" y="60" as="sourcePoint" />
            <mxPoint x="560" y="290" as="targetPoint" />
          </mxGeometry>
        </mxCell>
        <mxCell id="hJS1u5dl91PEJb6Ujmuf-14" style="edgeStyle=orthogonalEdgeStyle;rounded=0;orthogonalLoop=1;jettySize=auto;html=1;entryX=1;entryY=0.5;entryDx=0;entryDy=0;" edge="1" parent="1" target="hJS1u5dl91PEJb6Ujmuf-8">
          <mxGeometry relative="1" as="geometry">
            <mxPoint x="240" y="180" as="sourcePoint" />
          </mxGeometry>
        </mxCell>
        <mxCell id="hJS1u5dl91PEJb6Ujmuf-18" style="edgeStyle=orthogonalEdgeStyle;rounded=0;orthogonalLoop=1;jettySize=auto;html=1;exitX=0;exitY=0.75;exitDx=0;exitDy=0;entryX=1;entryY=0.75;entryDx=0;entryDy=0;" edge="1" parent="1" source="hJS1u5dl91PEJb6Ujmuf-2" target="hJS1u5dl91PEJb6Ujmuf-8">
          <mxGeometry relative="1" as="geometry" />
        </mxCell>
        <mxCell id="hJS1u5dl91PEJb6Ujmuf-2" value="Сжатие данных" style="rounded=0;whiteSpace=wrap;html=1;fontFamily=Times New Roman;fontSize=16;" vertex="1" parent="1">
          <mxGeometry x="360" y="139.5" width="80" height="80" as="geometry" />
        </mxCell>
        <mxCell id="hJS1u5dl91PEJb6Ujmuf-3" value="Модуль сжатия" style="text;html=1;strokeColor=none;fillColor=none;align=center;verticalAlign=middle;whiteSpace=wrap;rounded=0;fontFamily=Times New Roman;fontSize=16;" vertex="1" parent="1">
          <mxGeometry x="410" y="80" width="110" height="30" as="geometry" />
        </mxCell>
        <mxCell id="hJS1u5dl91PEJb6Ujmuf-4" value="" style="endArrow=none;html=1;rounded=0;" edge="1" parent="1">
          <mxGeometry width="50" height="50" relative="1" as="geometry">
            <mxPoint x="340" y="239.5" as="sourcePoint" />
            <mxPoint x="340" y="79.5" as="targetPoint" />
          </mxGeometry>
        </mxCell>
        <mxCell id="hJS1u5dl91PEJb6Ujmuf-5" value="" style="endArrow=none;html=1;rounded=0;" edge="1" parent="1">
          <mxGeometry width="50" height="50" relative="1" as="geometry">
            <mxPoint x="540" y="79.5" as="sourcePoint" />
            <mxPoint x="340" y="79.5" as="targetPoint" />
          </mxGeometry>
        </mxCell>
        <mxCell id="hJS1u5dl91PEJb6Ujmuf-6" value="" style="endArrow=none;html=1;rounded=0;" edge="1" parent="1">
          <mxGeometry width="50" height="50" relative="1" as="geometry">
            <mxPoint x="540" y="239.5" as="sourcePoint" />
            <mxPoint x="340" y="239.5" as="targetPoint" />
          </mxGeometry>
        </mxCell>
        <mxCell id="hJS1u5dl91PEJb6Ujmuf-7" value="" style="endArrow=none;html=1;rounded=0;" edge="1" parent="1">
          <mxGeometry width="50" height="50" relative="1" as="geometry">
            <mxPoint x="540" y="239.5" as="sourcePoint" />
            <mxPoint x="540" y="79.5" as="targetPoint" />
          </mxGeometry>
        </mxCell>
        <mxCell id="hJS1u5dl91PEJb6Ujmuf-17" style="edgeStyle=orthogonalEdgeStyle;rounded=0;orthogonalLoop=1;jettySize=auto;html=1;exitX=1;exitY=0.25;exitDx=0;exitDy=0;entryX=0;entryY=0.25;entryDx=0;entryDy=0;" edge="1" parent="1" source="hJS1u5dl91PEJb6Ujmuf-8" target="hJS1u5dl91PEJb6Ujmuf-2">
          <mxGeometry relative="1" as="geometry" />
        </mxCell>
        <mxCell id="hJS1u5dl91PEJb6Ujmuf-8" value="Запись страницы" style="rounded=0;whiteSpace=wrap;html=1;fontFamily=Times New Roman;fontSize=16;" vertex="1" parent="1">
          <mxGeometry x="160" y="139.5" width="80" height="80" as="geometry" />
        </mxCell>
        <mxCell id="hJS1u5dl91PEJb6Ujmuf-9" value="Модуль блочного устройства" style="text;html=1;strokeColor=none;fillColor=none;align=center;verticalAlign=middle;whiteSpace=wrap;rounded=0;fontFamily=Times New Roman;fontSize=16;" vertex="1" parent="1">
          <mxGeometry x="60" y="89.5" width="170" height="30" as="geometry" />
        </mxCell>
        <mxCell id="hJS1u5dl91PEJb6Ujmuf-10" value="" style="endArrow=none;html=1;rounded=0;" edge="1" parent="1">
          <mxGeometry width="50" height="50" relative="1" as="geometry">
            <mxPoint x="60" y="240" as="sourcePoint" />
            <mxPoint x="60" y="80" as="targetPoint" />
          </mxGeometry>
        </mxCell>
        <mxCell id="hJS1u5dl91PEJb6Ujmuf-11" value="" style="endArrow=none;html=1;rounded=0;" edge="1" parent="1">
          <mxGeometry width="50" height="50" relative="1" as="geometry">
            <mxPoint x="260" y="80" as="sourcePoint" />
            <mxPoint x="60" y="80" as="targetPoint" />
          </mxGeometry>
        </mxCell>
        <mxCell id="hJS1u5dl91PEJb6Ujmuf-12" value="" style="endArrow=none;html=1;rounded=0;" edge="1" parent="1">
          <mxGeometry width="50" height="50" relative="1" as="geometry">
            <mxPoint x="260" y="240" as="sourcePoint" />
            <mxPoint x="60" y="240" as="targetPoint" />
          </mxGeometry>
        </mxCell>
        <mxCell id="hJS1u5dl91PEJb6Ujmuf-13" value="" style="endArrow=none;html=1;rounded=0;" edge="1" parent="1">
          <mxGeometry width="50" height="50" relative="1" as="geometry">
            <mxPoint x="260" y="240" as="sourcePoint" />
            <mxPoint x="260" y="80" as="targetPoint" />
          </mxGeometry>
        </mxCell>
        <mxCell id="hJS1u5dl91PEJb6Ujmuf-15" value="" style="endArrow=none;dashed=1;html=1;rounded=0;endSize=6;strokeWidth=1;dashPattern=12 12;" edge="1" parent="1">
          <mxGeometry width="50" height="50" relative="1" as="geometry">
            <mxPoint x="40" y="60" as="sourcePoint" />
            <mxPoint x="560" y="60" as="targetPoint" />
          </mxGeometry>
        </mxCell>
      </root>
    </mxGraphModel>
  </diagram>
</mxfile>
